<svg width="154" height="40" viewBox="0 0 154 40" fill="none" xmlns="http://www.w3.org/2000/svg">
<path d="M1.64644 4.84C1.11844 6.328 0.542438 17.512 0.542438 25.576C0.542438 26.728 0.542438 27.832 0.590438 28.84C0.590438 33.352 1.11844 35.752 3.80644 36.136C4.67044 36.376 5.58244 36.52 6.59044 36.52C8.89444 36.52 11.3904 35.896 13.2144 34.84C14.9424 33.976 15.1824 33.736 15.3744 33.112C15.3744 32.392 14.6544 32.008 13.0704 32.008C12.7344 32.008 12.3504 32.008 11.9664 32.056C10.6704 32.056 9.61444 32.248 9.18244 32.248C9.13444 32.248 9.03844 32.296 8.99044 32.296C8.75044 32.296 8.65444 31.864 8.65444 29.176C8.65444 27.352 8.70244 24.472 8.75044 20.056C8.75044 8.68 8.75044 7.384 8.31844 5.896C7.88644 3.976 7.88644 3.976 7.02244 3.544C6.39844 3.208 5.53444 3.064 4.67044 3.064C3.85444 3.064 3.03844 3.208 2.51044 3.544C2.07844 3.736 1.83844 4.408 1.64644 4.84ZM17.3856 15.592C16.5696 16.312 14.8896 20.584 14.8896 25.096C14.8896 27.928 15.5616 30.856 17.6256 33.016C19.1616 34.84 20.9856 35.368 24.3456 35.368C26.9376 35.368 29.5776 33.688 29.5776 31.816C29.5776 30.952 29.3376 30.664 28.9536 30.664C28.4256 30.664 27.6576 31.192 26.9376 31.576C26.5536 31.624 26.2176 31.624 25.9296 31.624C25.1136 31.624 24.4896 31.432 23.9136 30.472C22.9056 28.936 22.3296 27.016 22.0896 24.424C22.0896 22.312 22.7136 22.408 24.0096 21.88C26.9376 20.968 28.6176 19.288 28.6176 17.464C28.6176 16.696 28.3296 15.928 27.7056 15.16C27.0336 14.296 25.9296 13.096 23.7696 13.096C22.6656 13.096 21.2256 13.432 19.4496 14.344C18.6336 14.584 17.6256 15.352 17.3856 15.592ZM25.0176 17.512C25.0176 18.808 24.5376 19.528 23.0016 20.344C22.7616 20.44 22.4736 20.488 22.2336 20.488C21.9456 20.488 21.7056 20.44 21.5616 20.296C21.5136 20.056 21.4656 19.672 21.4656 19.192C21.4656 18.04 21.6096 16.552 21.8016 16.168C22.0896 15.4 22.8096 15.016 23.4816 15.016C23.9616 15.016 24.4416 15.208 24.7776 15.64C25.0176 15.88 25.0176 16.696 25.0176 17.512ZM35.8704 5.656C35.5344 6.328 34.8624 10.84 34.5264 13.576C34.1904 15.304 34.1904 15.304 33.1344 15.304C31.7424 15.304 30.7344 16.024 30.3984 16.696C30.3984 17.368 31.7424 18.04 32.7984 18.04C33.8544 18.04 33.8064 18.04 34.1424 25.288C34.8144 33.544 35.1984 35.224 36.5904 36.28C37.7904 37.48 40.0464 38.152 42.1584 38.152C43.1184 38.152 44.0784 38.008 44.8464 37.672C45.6144 37.384 45.9984 37.048 45.9984 36.712C45.9984 36.328 45.4704 35.848 44.5104 35.272C43.8384 34.936 43.1184 34.216 42.7824 33.88C42.4464 32.824 42.0624 26.632 41.7264 20.44C41.6304 19.48 41.5824 18.808 41.5824 18.28C41.5824 16.648 42.1584 16.552 44.5104 16.312C46.5744 16.312 47.5824 15.976 47.9184 15.64C48.2064 15.352 48.3024 15.16 48.3024 14.968C48.3024 14.392 47.1024 14.152 44.5104 13.912C41.7744 13.912 41.7264 13.912 41.7264 10.12C41.7264 6.664 41.7264 5.656 41.3904 5.32C40.9104 5.08 39.4224 4.84 38.1744 4.84C37.6944 4.84 37.2144 4.888 36.9264 4.984C36.5904 5.32 35.8704 5.656 35.8704 5.656ZM51.7806 6.232C52.4046 6.52 52.9806 6.856 52.9806 6.856C52.9806 6.856 51.3486 10.984 51.3486 12.088C51.3486 12.232 51.3966 12.28 51.4446 12.328H52.9326C55.0446 12.328 57.8766 9.112 58.1646 6.232C58.3086 5.464 58.4046 4.984 58.4046 4.6C58.4046 4.168 58.3086 3.784 58.1646 3.208C57.3486 1.816 56.6286 0.808 54.5166 0.808C54.2766 0.808 53.9886 0.808 53.7006 0.855999C52.5006 0.855999 51.7806 1.384 51.1566 1.672C50.5806 2.344 50.1006 3.352 50.1006 4.216C50.1006 5.128 50.5806 5.944 51.7806 6.232ZM58.3573 14.392C57.9253 16.072 57.8293 15.832 57.8293 18.28C57.8293 21.016 58.1173 22.072 60.2773 25.384C62.4373 29.512 63.3013 31.432 63.3013 33.112V33.88C63.3013 34.936 63.0133 36.28 59.9893 36.376C58.0693 36.472 56.9653 36.712 56.9653 37.528C56.9173 37.672 56.8693 37.768 56.8693 37.864C56.8693 38.2 57.2053 38.344 57.8293 38.584C58.6453 38.92 60.6613 39.064 62.5333 39.064C63.8773 39.064 65.1253 38.968 65.7973 38.872C68.6293 38.104 70.5013 36.136 70.5013 33.64C70.5013 33.496 70.4533 33.304 70.4533 33.112C70.4533 31.432 69.5893 29.512 67.1413 25.384C64.8373 21.4 64.0693 20.008 64.0693 18.184C64.0693 17.896 64.0693 17.56 64.1173 17.176C64.1173 15.784 64.3093 14.008 67.4293 13.864C69.2533 13.768 69.9253 13.672 69.9253 13.144C69.9253 13.048 69.9253 12.952 69.8773 12.808C69.5893 12.232 68.2453 11.656 65.5093 11.656C62.7733 11.656 60.5653 11.704 58.3573 14.392ZM92.4954 5.656C92.1594 6.328 91.4874 10.84 91.1514 13.576C90.8154 15.304 90.8154 15.304 89.7594 15.304C88.3674 15.304 87.3594 16.024 87.0234 16.696C87.0234 17.368 88.3674 18.04 89.4234 18.04C90.4794 18.04 90.4314 18.04 90.7674 25.288C91.4394 33.544 91.8234 35.224 93.2154 36.28C94.4154 37.48 96.6714 38.152 98.7834 38.152C99.7434 38.152 100.703 38.008 101.471 37.672C102.239 37.384 102.623 37.048 102.623 36.712C102.623 36.328 102.095 35.848 101.135 35.272C100.463 34.936 99.7434 34.216 99.4074 33.88C99.0714 32.824 98.6874 26.632 98.3514 20.44C98.2554 19.48 98.2074 18.808 98.2074 18.28C98.2074 16.648 98.7834 16.552 101.135 16.312C103.199 16.312 104.207 15.976 104.543 15.64C104.831 15.352 104.927 15.16 104.927 14.968C104.927 14.392 103.727 14.152 101.135 13.912C98.3994 13.912 98.3514 13.912 98.3514 10.12C98.3514 6.664 98.3514 5.656 98.0154 5.32C97.5354 5.08 96.0474 4.84 94.7994 4.84C94.3194 4.84 93.8394 4.888 93.5514 4.984C93.2154 5.32 92.4954 5.656 92.4954 5.656ZM109.399 17.464C107.959 18.664 103.447 23.656 102.967 30.568C102.967 30.856 102.919 31.192 102.919 31.48C102.919 33.4 103.543 35.416 107.719 36.28C108.151 36.328 108.535 36.328 108.919 36.328C110.695 36.328 111.607 35.8 113.191 34.408C114.055 33.64 114.487 33.304 114.679 33.304C114.871 33.304 114.871 33.592 114.871 34.168C114.871 34.36 114.823 34.504 114.823 34.648C114.823 36.184 115.783 36.808 117.847 36.808C118.183 36.808 118.567 36.808 118.951 36.76C120.487 36.76 121.639 36.376 121.639 34.888C121.639 34.744 121.591 34.552 121.591 34.408C121.351 32.008 121.207 27.256 121.207 24.136C121.207 22.168 121.351 20.536 121.351 19.336C121.351 18.136 121.207 17.32 120.631 16.984C120.199 16.648 119.527 16.456 118.855 16.456C118.087 16.456 117.319 16.696 116.791 17.224C115.831 17.944 115.831 18.136 114.631 21.496C114.151 23.176 114.007 26.872 109.399 31.048C109.351 31.096 109.351 31.096 109.303 31.096C109.111 31.096 108.967 30.664 108.967 29.848C108.967 28.36 109.543 25.528 111.799 21.256C113.959 16.984 115.831 15.304 118.231 15.064C119.047 14.92 119.479 14.632 119.479 14.344C119.479 14.152 119.239 13.96 118.711 13.864C118.135 13.624 117.655 13.48 117.079 13.48C116.551 13.48 115.975 13.624 115.111 13.864C113.671 14.344 110.599 16.264 109.399 17.464ZM125.689 4.12C125.401 4.408 125.065 13.384 125.065 22.936C125.065 32.2 125.401 33.736 126.889 35.512C127.465 36.088 129.049 36.856 130.777 36.856C131.785 36.856 132.841 36.568 133.753 35.8C133.849 35.56 133.945 35.368 133.945 35.08C133.945 34.6 133.801 33.928 133.465 32.536C133.177 30.136 132.841 28.648 132.841 18.184C132.841 7.72 132.841 6.52 132.265 5.32C131.977 4.408 131.353 3.784 130.777 3.496C130.249 3.16 129.193 3.016 128.281 3.016C127.609 3.016 126.985 3.112 126.601 3.208C126.313 3.496 125.689 3.832 125.689 4.12ZM135.64 10.936C136.12 22.216 136.648 31.192 136.648 32.968C136.648 33.256 136.6 33.544 136.6 33.784C136.6 36.184 137.656 37 140.152 37C141.832 37 144.136 37 144.136 32.008V31.24C144.088 30.424 144.088 29.8 144.088 29.272C144.088 28.216 144.184 27.832 144.328 27.832C144.376 27.832 144.52 27.976 144.664 28.216C146.44 30.472 148.648 31.96 150.904 31.96C152.536 31.96 153.256 31.768 153.256 31.192C153.256 30.664 152.728 29.896 151.672 28.744C150.664 27.736 148.84 26.008 146.92 23.224C146.728 22.888 146.584 22.648 146.584 22.408C146.584 22.072 146.824 21.688 147.4 20.968C149.176 19.192 150.424 17.464 150.904 16.456C150.952 16.216 151 15.976 151 15.784C151 15.016 150.52 14.68 148.936 14.68C148.648 14.632 148.408 14.632 148.216 14.632C147.016 14.632 146.536 15.208 145.672 16.936C145.192 17.704 144.376 18.712 144.136 18.952C143.992 19.144 143.896 19.336 143.848 19.336C143.656 19.336 143.608 18.28 143.416 14.68C143.416 9.928 142.936 5.656 142.168 4.408C142.168 4.216 141.544 3.112 139.336 3.112C138.712 3.112 137.992 3.16 137.128 3.4C135.832 3.736 135.496 3.736 135.496 6.376C135.496 7.432 135.592 8.872 135.64 10.936Z" fill="#AED8E2"/>
</svg>
