<?xml version="1.0" encoding="iso-8859-1"?>
<!-- Generator: Adobe Illustrator 28.4.1, SVG Export Plug-In . SVG Version: 6.00 Build 0)  -->
<svg fill="#FFFFFF" version="1.1" baseProfile="basic" id="Layer_1"
	 xmlns="http://www.w3.org/2000/svg" xmlns:xlink="http://www.w3.org/1999/xlink" x="0px" y="0px" viewBox="0 0 24 24"
	 xml:space="preserve">
<path d="M20.576,19.721l-6.909-9.566l5.219-6.337c0.176-0.213,0.146-0.528-0.068-0.704c-0.214-0.177-0.529-0.146-0.704,0.068
	l-5.052,6.135L9.057,3.771C8.707,3.287,8.146,3,7.549,3H4.078C3.42,3,3.039,3.746,3.424,4.279l6.442,8.919l-5.751,6.984
	c-0.176,0.213-0.146,0.528,0.068,0.704C4.275,20.963,4.388,21,4.5,21c0.145,0,0.288-0.062,0.386-0.182l5.585-6.782l4.473,6.193
	c0.35,0.484,0.91,0.771,1.507,0.771h3.471C20.58,21,20.961,20.254,20.576,19.721z"/>
</svg>